<?xml version="1.0" encoding="iso-8859-1"?>
<!-- Generator: Adobe Illustrator 19.0.0, SVG Export Plug-In . SVG Version: 6.00 Build 0)  -->
<svg version="1.1" id="Capa_1" xmlns="http://www.w3.org/2000/svg" xmlns:xlink="http://www.w3.org/1999/xlink" x="0px" y="0px"
	 viewBox="0 0 512.009 512.009" style="enable-background:new 0 0 512.009 512.009;" xml:space="preserve">
<path style="fill:#FFC107;" d="M360.535,294.4l-128,170.667c-1.511,2.146-3.814,3.604-6.4,4.053L16.002,511.147l-3.2,0.64
	c-0.697,0.176-1.416,0.248-2.133,0.213c-2.829,0.037-5.542-1.125-7.467-3.2c-2.57-2.48-3.696-6.1-2.987-9.6l0.64-3.2l42.027-210.133
	c0.447-2.587,1.905-4.89,4.053-6.4l170.667-128c4.223-3.217,10.186-2.758,13.867,1.067l128,128
	C363.293,284.214,363.752,290.177,360.535,294.4z"/>
<path style="fill:#FAFAFA;" d="M167.469,359.467L16.002,511.147l-3.2,0.64c-0.697,0.176-1.416,0.248-2.133,0.213
	c-2.829,0.037-5.542-1.125-7.467-3.2c-2.57-2.48-3.696-6.1-2.987-9.6l0.64-3.2l151.68-151.467c4.165-4.082,10.851-4.015,14.933,0.15
	C171.493,348.79,171.493,355.361,167.469,359.467z"/>
<path style="fill:#455A64;" d="M501.335,0H330.669c-3.246-0.002-6.316,1.474-8.341,4.011l-85.333,106.667
	c-3.396,4.245-3.056,10.365,0.789,14.208l149.333,149.333c3.843,3.845,9.963,4.185,14.208,0.789l106.667-85.333
	c2.536-2.025,4.013-5.096,4.011-8.341V10.667C512.002,4.776,507.226,0,501.335,0z"/>
<circle style="fill:#FAFAFA;" cx="192.002" cy="320" r="42.667"/>
<g>
</g>
<g>
</g>
<g>
</g>
<g>
</g>
<g>
</g>
<g>
</g>
<g>
</g>
<g>
</g>
<g>
</g>
<g>
</g>
<g>
</g>
<g>
</g>
<g>
</g>
<g>
</g>
<g>
</g>
</svg>
