<svg id="color" enable-background="new 0 0 24 24" height="512" viewBox="0 0 24 24" width="512" xmlns="http://www.w3.org/2000/svg"><path d="m21 1h-18c-1.654 0-3 1.346-3 3v16c0 1.654 1.346 3 3 3h18c1.654 0 3-1.346 3-3v-16c0-1.654-1.346-3-3-3z" fill="#607d8b"/><path d="m21 21h-18c-.551 0-1-.448-1-1v-14h20v14c0 .552-.449 1-1 1z" fill="#fff"/><path d="m12 1h-9c-1.654 0-3 1.346-3 3v16c0 1.654 1.346 3 3 3h9v-2h-9c-.551 0-1-.448-1-1v-14h10z" fill="#546d79"/><path d="m12 6h-10v14c0 .552.449 1 1 1h9z" fill="#dedede"/><g fill="#ffc107"><path d="m15.25 16.5c-.173 0-.346-.059-.488-.181-.314-.27-.351-.743-.081-1.058l1.081-1.261-1.082-1.262c-.27-.314-.233-.788.081-1.058.316-.27.789-.233 1.058.081l1.5 1.75c.241.281.241.695 0 .977l-1.5 1.75c-.148.173-.358.262-.569.262z"/><path d="m8.75 16.5c-.211 0-.421-.089-.57-.262l-1.5-1.75c-.241-.281-.241-.695 0-.977l1.5-1.75c.27-.314.743-.352 1.058-.081.314.27.351.743.081 1.058l-1.081 1.262 1.082 1.262c.27.314.233.788-.081 1.058-.142.12-.316.18-.489.18z"/><path d="m11.082 17.981c-.404-.093-.655-.496-.563-.899l1.5-6.5c.093-.403.496-.652.899-.563.404.093.655.496.563.899l-1.5 6.5c-.091.396-.485.656-.899.563z"/></g><path d="m17.497 13.938h-1.789l.054.062-1.082 1.262c-.27.314-.233.788.081 1.058.142.122.315.181.488.181.211 0 .421-.089.57-.262l1.5-1.75c.135-.158.194-.357.178-.551z" fill="#dea806"/><path d="m8.291 13.938h-1.788c-.016.194.043.393.178.551l1.5 1.75c.148.172.358.261.569.261.172 0 .346-.06.488-.181.314-.27.351-.743.081-1.058l-1.081-1.261z" fill="#dea806"/><path d="m12.784 13.938h-1.54l-.726 3.144c-.093.403.159.806.563.899.058.013.114.019.17.019.348 0 .652-.24.73-.581z" fill="#dea806"/></svg>