<svg id="color_1_" enable-background="new 0 0 24 24" height="512" viewBox="0 0 24 24" width="512" xmlns="http://www.w3.org/2000/svg"><path d="m5.5 3h-1c-.827 0-1.5.673-1.5 1.5v1c0 .276.224.5.5.5h3c.276 0 .5-.224.5-.5v-1c0-.827-.673-1.5-1.5-1.5z" fill="#90a4ae"/><path d="m5 3h-.5c-.827 0-1.5.673-1.5 1.5v1c0 .276.224.5.5.5h1.5z" fill="#7d8f97"/><path d="m21.25 5h-.537l-.74-1.48c-.469-.937-1.411-1.52-2.459-1.52h-4.278c-1.048 0-1.99.583-2.459 1.52l-.74 1.48h-7.287c-1.517 0-2.75 1.233-2.75 2.75v10.5c0 1.517 1.233 2.75 2.75 2.75h18.5c1.517 0 2.75-1.233 2.75-2.75v-10.5c0-1.517-1.233-2.75-2.75-2.75z" fill="#607d8b"/><path d="m12 2.291c-.519.26-.951.685-1.224 1.229l-.739 1.48h-7.287c-1.517 0-2.75 1.233-2.75 2.75v10.5c0 1.517 1.233 2.75 2.75 2.75h9.25z" fill="#546d79"/><path d="m16 8c-2.757 0-5 2.243-5 5s2.243 5 5 5 5-2.243 5-5-2.243-5-5-5z" fill="#00bcd4"/><path d="m15.791 8.004c-2.66.11-4.791 2.309-4.791 4.996s2.131 4.886 4.791 4.996z" fill="#00a4b9"/><path d="m7.25 10h-3.5c-.414 0-.75-.336-.75-.75s.336-.75.75-.75h3.5c.414 0 .75.336.75.75s-.336.75-.75.75z" fill="#fafafa"/><path d="m5.5 8.5h-1.75c-.414 0-.75.336-.75.75s.336.75.75.75h1.75z" fill="#dadada"/></svg>