<?xml version="1.0" encoding="iso-8859-1"?>
<!-- Generator: Adobe Illustrator 19.0.0, SVG Export Plug-In . SVG Version: 6.00 Build 0)  -->
<svg version="1.1" id="Capa_1" xmlns="http://www.w3.org/2000/svg" xmlns:xlink="http://www.w3.org/1999/xlink" x="0px" y="0px"
	 viewBox="0 0 512 512" style="enable-background:new 0 0 512 512;" xml:space="preserve">
<path style="fill:#455A64;" d="M96,106.667h320c53.019,0,96,42.981,96,96v106.667c0,53.019-42.981,96-96,96H96
	c-53.019,0-96-42.981-96-96V202.667C0,149.647,42.981,106.667,96,106.667z"/>
<g>
	<circle style="fill:#90A4AE;" cx="117.333" cy="224" r="74.667"/>
	<circle style="fill:#90A4AE;" cx="394.667" cy="224" r="74.667"/>
</g>
<path style="fill:#CFD8DC;" d="M309.333,341.333H202.667c-5.891,0-10.667-4.776-10.667-10.667c0-5.891,4.776-10.667,10.667-10.667
	h106.667c5.891,0,10.667,4.776,10.667,10.667C320,336.558,315.224,341.333,309.333,341.333z"/>
<g>
	<path style="fill:#FAFAFA;" d="M224,298.667c-5.891,0-10.667-4.776-10.667-10.667V160c0-5.891,4.776-10.667,10.667-10.667
		c5.891,0,10.667,4.776,10.667,10.667v128C234.667,293.891,229.891,298.667,224,298.667z"/>
	<path style="fill:#FAFAFA;" d="M288,298.667c-5.891,0-10.667-4.776-10.667-10.667V160c0-5.891,4.776-10.667,10.667-10.667
		c5.891,0,10.667,4.776,10.667,10.667v128C298.667,293.891,293.891,298.667,288,298.667z"/>
</g>
<g>
	<path style="fill:#2196F3;" d="M245.333,277.333h-42.667c-5.891,0-10.667-4.776-10.667-10.667c0-5.891,4.776-10.667,10.667-10.667
		h42.667c5.891,0,10.667,4.776,10.667,10.667C256,272.558,251.224,277.333,245.333,277.333z"/>
	<path style="fill:#2196F3;" d="M309.333,192h-42.667c-5.891,0-10.667-4.776-10.667-10.667c0-5.891,4.776-10.667,10.667-10.667
		h42.667c5.891,0,10.667,4.776,10.667,10.667C320,187.224,315.224,192,309.333,192z"/>
</g>
<path style="fill:#F44336;" d="M266.667,362.667c-5.891,0-10.667-4.776-10.667-10.667v-42.667c0-5.891,4.776-10.667,10.667-10.667
	c5.891,0,10.667,4.776,10.667,10.667V352C277.333,357.891,272.558,362.667,266.667,362.667z"/>
<g>
	<path style="fill:#FAFAFA;" d="M394.667,234.667c-1.398,0.022-2.783-0.269-4.053-0.853c-1.333-0.452-2.514-1.264-3.413-2.347
		c-2.075-1.924-3.237-4.637-3.2-7.467c-0.03-1.399,0.262-2.785,0.853-4.053c0.441-1.333,1.246-2.515,2.325-3.413
		c0.898-1.083,2.08-1.896,3.413-2.347c3.96-1.631,8.514-0.704,11.52,2.347c1.078,0.903,1.89,2.083,2.347,3.413
		c0.591,1.268,0.883,2.655,0.853,4.053c0.045,2.831-1.119,5.547-3.2,7.467c-0.895,1.087-2.078,1.9-3.413,2.347
		C397.436,234.397,396.058,234.689,394.667,234.667z"/>
	<path style="fill:#FAFAFA;" d="M117.333,234.667c-1.398,0.022-2.783-0.269-4.053-0.853c-1.333-0.452-2.514-1.264-3.413-2.347
		c-4.124-3.939-4.274-10.475-0.335-14.598c0.109-0.114,0.221-0.226,0.335-0.335c0.898-1.083,2.08-1.896,3.413-2.347
		c3.96-1.631,8.514-0.704,11.52,2.347c4.124,4.206,4.058,10.96-0.149,15.084C122.694,233.536,120.074,234.628,117.333,234.667z"/>
</g>
<g>
	<path style="fill:#F44336;" d="M96,341.333c-5.891-0.071-10.608-4.904-10.537-10.795c0.033-2.748,1.125-5.377,3.049-7.339
		c4.148-4.066,10.786-4.066,14.933,0c4.124,4.206,4.058,10.96-0.148,15.084C101.345,340.198,98.733,341.29,96,341.333z"/>
	<path style="fill:#F44336;" d="M138.667,341.333c-5.891-0.071-10.608-4.904-10.537-10.795c0.033-2.748,1.125-5.377,3.049-7.339
		c4.148-4.066,10.786-4.066,14.933,0c4.124,4.206,4.058,10.96-0.148,15.084C144.012,340.198,141.4,341.29,138.667,341.333z"/>
	<path style="fill:#F44336;" d="M373.333,341.333c-1.398,0.022-2.783-0.269-4.053-0.853c-1.333-0.452-2.514-1.264-3.413-2.347
		c-4.124-3.939-4.274-10.475-0.335-14.598c0.109-0.114,0.221-0.226,0.335-0.335c0.898-1.083,2.08-1.896,3.413-2.347
		c3.96-1.631,8.514-0.704,11.52,2.347c4.124,4.206,4.058,10.96-0.149,15.084C378.694,340.203,376.074,341.295,373.333,341.333z"/>
	<path style="fill:#F44336;" d="M416,341.333c-1.398,0.022-2.783-0.269-4.053-0.853c-1.333-0.452-2.514-1.264-3.413-2.347
		c-4.124-3.939-4.274-10.475-0.335-14.598c0.109-0.114,0.221-0.226,0.335-0.335c0.898-1.083,2.08-1.896,3.413-2.347
		c3.96-1.631,8.514-0.704,11.52,2.347c4.124,4.206,4.058,10.96-0.149,15.084C421.361,340.203,418.74,341.295,416,341.333z"/>
</g>
<g>
</g>
<g>
</g>
<g>
</g>
<g>
</g>
<g>
</g>
<g>
</g>
<g>
</g>
<g>
</g>
<g>
</g>
<g>
</g>
<g>
</g>
<g>
</g>
<g>
</g>
<g>
</g>
<g>
</g>
</svg>
